<svg fill="none" height="64" viewBox="0 0 508 64" width="508" xmlns="http://www.w3.org/2000/svg" xmlns:xlink="http://www.w3.org/1999/xlink"><mask id="a" fill="#fff"><path d="m290.667 12h2v40h-2z" fill="#fff"/></mask><g fill="#fff"><path clip-rule="evenodd" d="m42.9364 31.2318-6.7995-11.8407-7.6521-13.33694c-.127-.21929-.3091-.40126-.5282-.52774-.219-.12648-.4672-.19305-.7198-.19305-.2527 0-.5009.06657-.7199.19305s-.4011.30845-.5282.52774l-14.5565 25.17764-5.88817 10.2958c-.13258.2173-.20521.4661-.21047.7209s.05705.5064.18055.729c.12349.2226.30372.4083.52221.5379.2185.1297.4674.1987.72118.1999h11.2105c.2607.0041.5175-.0632.743-.1945s.4112-.3218.5371-.551l5.8369-10.0773.9037-1.5424c.0538-.054.1076-.108.1076-.1594.1441-.1886.3325-.3386.5482-.4366s.4522-.1411.6885-.1253c.2363.0157.465.0898.6659.2157.201.1258.3679.2995.4859.5056l6.0571 10.5091 1.1162 1.9203c.0269.0527.0532.1061.0794.1594.0262.0534.0525.1067.0794.1594.0612.2162.0721.4437.0319.6649-.0402.2211-.1305.43-.2638.6106s-.3062.328-.5052.4309c-.1991.1029-.419.1585-.6428.1625h-13.2817c-.2608-.0049-.518.062-.7436.1934-.2257.1314-.4112.3224-.5364.5521l-5.5784 9.7688c-.1272.2234-.1935.4765-.1919.7339.0015.2573.0708.5097.2007.7315.13.2218.316.4052.5392.5316.2233.1264.4758.1913.732.1881h40.5336c.2542-.0022.5035-.0705.7237-.1982.2201-.1277.4035-.3104.5324-.5305.1289-.22.1989-.4698.2031-.725.0042-.2553-.0575-.5072-.1791-.7314zm38.3014-12.3213-10.888 25.9258h7.4908l1.8074-4.5888h9.9331l1.8586 4.5888h7.652l-10.8931-25.9258zm.4787 15.7817 2.8699-7.3086 2.8672 7.3086zm38.9465 4.1695c2.869 0 4.728-1.707 4.728-5.2828v-14.5092h7.217v14.2958c0 8.3214-4.726 11.9513-12.004 11.9513-7.279 0-11.848-3.7353-11.902-11.7893v-14.4578h7.217v14.2958c0 3.7353 1.874 5.4962 4.744 5.4962zm35.375-19.792h-9.936v25.7664h9.729c9.241 0 14.607-5.4962 14.607-12.9642v-.1054c.103-7.3574-5.209-12.6968-14.4-12.6968zm7.224 12.9102c0 4.1594-2.816 6.5065-7.065 6.5065h-2.87v-13.0696h2.87c4.249 0 7.065 2.4011 7.065 6.5091zm19.92-12.9102h7.12v25.7664h-7.12zm37.444 14.5092c0 3.5758-1.858 5.2828-4.728 5.2828s-4.728-1.7609-4.728-5.4962v-14.2958h-7.215v14.4578c0 8.054 4.57 11.7893 11.899 11.7893 7.279 0 12.007-3.6299 12.007-11.9513v-14.2958h-7.235zm26.784-7.3083c0 1.1748.903 1.707 4.462 2.509 5.898 1.3342 9.564 3.2006 9.459 8.1724v.0514c0 5.2288-4.142 8.3754-10.358 8.3754-4.516 0-8.819-1.4396-12.006-4.2674l3.983-4.7481c2.55 2.018 5.366 3.0848 8.341 3.0848 1.912 0 2.921-.6401 2.921-1.7609v-.1054c0-1.0669-.899-1.6555-4.352-2.455-5.471-1.2263-9.67-2.8278-9.67-8.1081v-.108c0-4.7995 3.774-8.2674 9.936-8.2674 4.355 0 7.808 1.1748 10.57 3.4139l-3.558 5.0669c-2.332-1.6633-4.882-2.5707-7.168-2.5707-1.71 0-2.56.748-2.56 1.6555z" fill-rule="evenodd"/><path d="m292.667 52v-40h-4v40z" mask="url(#a)" opacity=".25"/><path d="m319.106 44.5v-24.7273h16.082v3.755h-11.603v6.7131h10.77v3.7549h-10.77v6.7493h11.7v3.755zm24.15-10.8665v10.8665h-4.371v-18.5455h4.178v3.1513h.217c.427-1.0383 1.107-1.8634 2.04-2.4751.942-.6118 2.105-.9176 3.49-.9176 1.28 0 2.394.2736 3.344.821.958.5473 1.699 1.3402 2.222 2.3785.531 1.0384.793 2.2981.785 3.7792v11.8082h-4.371v-11.1321c0-1.2396-.322-2.2095-.966-2.9098-.636-.7003-1.517-1.0504-2.644-1.0504-.765 0-1.445.169-2.041.5071-.587.33-1.05.8089-1.388 1.4368-.33.6278-.495 1.3885-.495 2.2819zm23.733 18.2074c-1.569 0-2.918-.2133-4.045-.6399-1.126-.4186-2.032-.982-2.716-1.6903-.684-.7084-1.159-1.4932-1.425-2.3545l3.936-.9538c.177.3622.435.7204.773 1.0746.338.3622.793.66 1.364.8935.58.2414 1.308.3622 2.186.3622 1.239 0 2.265-.3019 3.078-.9056.813-.5956 1.22-1.5776 1.22-2.946v-3.5135h-.217c-.226.4508-.556.9136-.99 1.3885-.427.4749-.995.8734-1.703 1.1953-.7.322-1.582.483-2.644.483-1.425 0-2.717-.3341-3.876-1.0022-1.151-.6761-2.068-1.6822-2.753-3.0184-.676-1.3442-1.014-3.0265-1.014-5.0469 0-2.0365.338-3.755 1.014-5.1555.685-1.4087 1.606-2.4752 2.765-3.1996 1.159-.7325 2.451-1.0987 3.876-1.0987 1.087 0 1.98.1851 2.68.5554.709.3622 1.272.8009 1.691 1.316.418.5071.736.986.954 1.4368h.241v-3.0668h4.31v18.8473c0 1.5857-.378 2.8978-1.135 3.9361-.756 1.0384-1.79 1.8151-3.103 2.3303-1.312.5151-2.801.7727-4.467.7727zm.036-11.0355c.926 0 1.715-.2254 2.367-.6761.652-.4508 1.147-1.0988 1.485-1.9439.338-.8452.507-1.8594.507-3.0426 0-1.1672-.169-2.1894-.507-3.0668-.33-.8774-.821-1.5575-1.473-2.0405-.644-.491-1.437-.7365-2.379-.7365-.974 0-1.787.2536-2.439.7607s-1.143 1.2033-1.473 2.0887c-.33.8774-.495 1.8755-.495 2.9944 0 1.1349.165 2.129.495 2.9822.339.8452.834 1.5052 1.486 1.9801.66.4669 1.469.7003 2.426.7003zm12.469 3.6946v-18.5455h4.371v18.5455zm2.197-21.1776c-.692 0-1.288-.2294-1.787-.6882-.499-.4668-.748-1.0262-.748-1.6782 0-.6601.249-1.2195.748-1.6783.499-.4669 1.095-.7003 1.787-.7003.701 0 1.296.2334 1.787.7003.499.4588.749 1.0182.749 1.6783 0 .652-.25 1.2114-.749 1.6782-.491.4588-1.086.6882-1.787.6882zm10.359 10.3111v10.8665h-4.371v-18.5455h4.178v3.1513h.217c.427-1.0383 1.107-1.8634 2.04-2.4751.942-.6118 2.105-.9176 3.49-.9176 1.28 0 2.394.2736 3.344.821.958.5473 1.699 1.3402 2.222 2.3785.531 1.0384.793 2.2981.785 3.7792v11.8082h-4.371v-11.1321c0-1.2396-.322-2.2095-.966-2.9098-.636-.7003-1.517-1.0504-2.644-1.0504-.765 0-1.445.169-2.041.5071-.587.33-1.05.8089-1.388 1.4368-.33.6278-.495 1.3885-.495 2.2819zm23.878 11.2287c-1.859 0-3.465-.3863-4.817-1.1591-1.345-.7808-2.379-1.8835-3.103-3.3082-.725-1.4328-1.087-3.1191-1.087-5.059 0-1.9076.362-3.5819 1.087-5.0227.732-1.4489 1.754-2.5757 3.066-3.3807 1.312-.8129 2.854-1.2194 4.625-1.2194 1.143 0 2.221.1851 3.235.5554 1.023.3622 1.924.9256 2.705 1.6903.789.7647 1.409 1.7386 1.859 2.9219.451 1.1752.676 2.5757.676 4.2017v1.3402h-15.201v-2.946h11.012c-.008-.8372-.189-1.5817-.543-2.2337-.355-.66-.85-1.1792-1.486-1.5575-.627-.3783-1.36-.5675-2.197-.5675-.893 0-1.678.2173-2.354.652-.677.4266-1.204.99-1.582 1.6903-.37.6923-.56 1.4529-.568 2.282v2.5717c0 1.0786.198 2.0043.592 2.777.394.7647.946 1.3523 1.654 1.7628.709.4025 1.538.6037 2.487.6037.636 0 1.212-.0886 1.727-.2656.515-.1852.962-.4548 1.34-.809s.664-.7928.857-1.316l4.081.4588c-.257 1.0786-.748 2.0203-1.473 2.8253-.716.7968-1.634 1.4166-2.752 1.8593-1.119.4347-2.399.652-3.84.652zm19.474 0c-1.859 0-3.465-.3863-4.817-1.1591-1.344-.7808-2.379-1.8835-3.103-3.3082-.725-1.4328-1.087-3.1191-1.087-5.059 0-1.9076.362-3.5819 1.087-5.0227.732-1.4489 1.755-2.5757 3.067-3.3807 1.312-.8129 2.853-1.2194 4.624-1.2194 1.143 0 2.222.1851 3.236.5554 1.022.3622 1.923.9256 2.704 1.6903.789.7647 1.409 1.7386 1.86 2.9219.45 1.1752.676 2.5757.676 4.2017v1.3402h-15.201v-2.946h11.011c-.008-.8372-.189-1.5817-.543-2.2337-.354-.66-.849-1.1792-1.485-1.5575-.628-.3783-1.361-.5675-2.198-.5675-.893 0-1.678.2173-2.354.652-.676.4266-1.203.99-1.582 1.6903-.37.6923-.559 1.4529-.567 2.282v2.5717c0 1.0786.197 2.0043.591 2.777.395.7647.946 1.3523 1.654 1.7628.709.4025 1.538.6037 2.488.6037.636 0 1.211-.0886 1.726-.2656.515-.1852.962-.4548 1.34-.809.379-.3542.665-.7928.858-1.316l4.081.4588c-.258 1.0786-.749 2.0203-1.473 2.8253-.717.7968-1.634 1.4166-2.753 1.8593-1.119.4347-2.399.652-3.84.652zm11.264-.3622v-18.5455h4.238v3.091h.194c.338-1.0706.917-1.8956 1.738-2.4752.829-.5876 1.775-.8814 2.838-.8814.241 0 .511.0121.808.0362.306.0161.56.0443.761.0846v4.0206c-.185-.0644-.479-.1208-.881-.1691-.395-.0563-.777-.0845-1.147-.0845-.797 0-1.514.1731-2.149.5192-.628.338-1.123.8089-1.486 1.4126-.362.6037-.543 1.3-.543 2.0888v10.9027zm12.801 0v-18.5455h4.371v18.5455zm2.197-21.1776c-.692 0-1.288-.2294-1.787-.6882-.499-.4668-.748-1.0262-.748-1.6782 0-.6601.249-1.2195.748-1.6783.499-.4669 1.095-.7003 1.787-.7003.701 0 1.296.2334 1.787.7003.499.4588.749 1.0182.749 1.6783 0 .652-.25 1.2114-.749 1.6782-.491.4588-1.086.6882-1.787.6882zm10.359 10.3111v10.8665h-4.371v-18.5455h4.178v3.1513h.217c.427-1.0383 1.107-1.8634 2.04-2.4751.942-.6118 2.105-.9176 3.49-.9176 1.28 0 2.394.2736 3.344.821.958.5473 1.699 1.3402 2.222 2.3785.531 1.0384.793 2.2981.785 3.7792v11.8082h-4.371v-11.1321c0-1.2396-.322-2.2095-.966-2.9098-.636-.7003-1.517-1.0504-2.644-1.0504-.765 0-1.445.169-2.041.5071-.587.33-1.05.8089-1.388 1.4368-.33.6278-.495 1.3885-.495 2.2819zm23.733 18.2074c-1.569 0-2.918-.2133-4.045-.6399-1.126-.4186-2.032-.982-2.716-1.6903-.684-.7084-1.159-1.4932-1.425-2.3545l3.936-.9538c.177.3622.435.7204.773 1.0746.338.3622.793.66 1.364.8935.58.2414 1.308.3622 2.186.3622 1.239 0 2.265-.3019 3.078-.9056.813-.5956 1.22-1.5776 1.22-2.946v-3.5135h-.217c-.226.4508-.556.9136-.99 1.3885-.427.4749-.995.8734-1.703 1.1953-.7.322-1.582.483-2.644.483-1.425 0-2.717-.3341-3.876-1.0022-1.151-.6761-2.068-1.6822-2.753-3.0184-.676-1.3442-1.014-3.0265-1.014-5.0469 0-2.0365.338-3.755 1.014-5.1555.685-1.4087 1.606-2.4752 2.765-3.1996 1.159-.7325 2.451-1.0987 3.876-1.0987 1.087 0 1.98.1851 2.68.5554.709.3622 1.272.8009 1.691 1.316.418.5071.736.986.954 1.4368h.241v-3.0668h4.31v18.8473c0 1.5857-.378 2.8978-1.134 3.9361-.757 1.0384-1.791 1.8151-3.103 2.3303-1.313.5151-2.802.7727-4.468.7727zm.036-11.0355c.926 0 1.715-.2254 2.367-.6761.652-.4508 1.147-1.0988 1.485-1.9439.338-.8452.507-1.8594.507-3.0426 0-1.1672-.169-2.1894-.507-3.0668-.33-.8774-.821-1.5575-1.473-2.0405-.644-.491-1.437-.7365-2.379-.7365-.974 0-1.787.2536-2.439.7607-.651.5071-1.142 1.2033-1.473 2.0887-.33.8774-.495 1.8755-.495 2.9944 0 1.1349.165 2.129.495 2.9822.339.8452.834 1.5052 1.486 1.9801.66.4669 1.469.7003 2.426.7003z"/></g></svg>